<svg xmlns="http://www.w3.org/2000/svg" viewBox="0 0 266.58 280.27"><defs><style>.cls-1{fill:#54bceb;}</style></defs><g id="Layer_2" data-name="Layer 2"><g id="Layer_1-2" data-name="Layer 1"><circle class="cls-1" cx="28.23" cy="82.35" r="5.34"/><circle class="cls-1" cx="50.96" cy="86.78" r="5.34"/><circle class="cls-1" cx="28.23" cy="150.82" r="5.34"/><path class="cls-1" d="M51,149.92a5.34,5.34,0,1,0,5.34,5.33A5.34,5.34,0,0,0,51,149.92Z"/><circle class="cls-1" cx="28.23" cy="219.29" r="5.34"/><path class="cls-1" d="M51,218.39a5.34,5.34,0,1,0,5.34,5.33A5.34,5.34,0,0,0,51,218.39Z"/><path class="cls-1" d="M265.72,278.77a4,4,0,0,0,.83-2.93c-4.7-41.3-20.21-54.78-31.46-61.33l-5.56-3.24,5.08-4a49.28,49.28,0,0,0-25.75-87.78l-.68-.06V23.56a4.06,4.06,0,0,0-.18-1.12c-1.12-7.13-11.72-12.53-32.43-16.61C156.44,2.07,131.05,0,104.09,0S51.74,2.07,32.61,5.83C11.9,9.91,1.3,15.31.2,22.34A4.62,4.62,0,0,0,0,23.56V228.82a4,4,0,0,0,.12.93l0,.11c.69,7.39,11,12.8,32.47,17,19.13,3.76,44.52,5.83,71.48,5.83,14.48,0,28.46-.59,41.55-1.75l1.09-.1-.31,1.06a139.41,139.41,0,0,0-4.59,23.92,4,4,0,0,0,7.9.9c4.15-36.39,17.17-55.21,42.21-61a4,4,0,0,0,.26-7.67,41.28,41.28,0,1,1,24,0,4,4,0,0,0,.26,7.67c25,5.82,38.06,24.64,42.21,61a4,4,0,0,0,7.06,2ZM8.32,23.2c1-1.31,5.93-5.91,28.33-10C55,9.82,78.93,8,104.09,8s49.11,1.85,67.44,5.21c22.4,4.11,27.34,8.71,28.33,10l.33.45-.33.45c-1,1.32-5.94,5.92-28.33,10-18.33,3.36-42.28,5.21-67.44,5.21S55,37.48,36.65,34.12C14.26,30,9.31,25.42,8.32,24.1L8,23.65ZM173.78,207.32l5.08,4-5.56,3.24c-10.2,5.93-18.06,15.23-23.38,27.63l-.17.41-.44,0c-13.9,1.41-29.54,2.15-45.22,2.15-25.16,0-49.11-1.85-67.44-5.21-23.87-4.37-27.9-9.29-28.47-10.23l-.1-.17v-.2A3.4,3.4,0,0,0,8,228.3l0-.14V170.74l1.09.56c5.37,2.72,13.07,5,23.55,7.11,19.13,3.76,44.52,5.83,71.48,5.83a451,451,0,0,0,51.9-2.82l.64-.08.17.62A48.41,48.41,0,0,0,173.78,207.32Zm26.43-87.84-.68.06a49.28,49.28,0,0,0-44.56,49c0,1.26.06,2.64.2,4.21l.06.73-.73.08a445.73,445.73,0,0,1-50.41,2.71c-25.15,0-49.1-1.85-67.44-5.21-23.87-4.37-27.9-9.29-28.47-10.23l-.1-.17v-.2a3.4,3.4,0,0,0-.08-.63l0-.14V102.27l1.09.56c5.37,2.72,13.08,5,23.55,7.11,19.13,3.76,44.52,5.83,71.48,5.83s52.35-2.07,71.48-5.83c10.47-2.06,18.18-4.39,23.55-7.11l1.09-.56Zm0-28.12a4.48,4.48,0,0,0-.08.64v.19l-.1.17c-.56.94-4.58,5.85-28.47,10.23-18.33,3.36-42.28,5.21-67.44,5.21S55,106,36.65,102.59C12.78,98.22,8.74,93.3,8.18,92.36l-.1-.17V92A3.4,3.4,0,0,0,8,91.36l0-.14V33.8l1.09.56c5.37,2.72,13.07,5,23.55,7.11,19.13,3.76,44.52,5.84,71.48,5.84s52.35-2.08,71.48-5.84c10.48-2.06,18.18-4.39,23.55-7.11l1.09-.55Z"/></g></g></svg>