<svg xmlns="http://www.w3.org/2000/svg" viewBox="0 0 273.74 279.59"><defs><style>.cls-1{fill:#54bceb;}</style></defs><g id="Layer_2" data-name="Layer 2"><g id="Layer_1-2" data-name="Layer 1"><path class="cls-1" d="M129.31,262.12c-3.44,7.24-9.5,10.47-19.63,10.47a43.18,43.18,0,0,1-43.26-43,1.23,1.23,0,0,1,0-.2.54.54,0,0,1,0-.18,28.86,28.86,0,0,1,1.48-10.91c2.61-7.87,8.13-13.72,16.43-17.38l.66-.29.48.53A34.4,34.4,0,0,0,99.75,210l.64.22,0,.68A11.91,11.91,0,0,0,109.64,222v15.33H97a3,3,0,0,0-3,3v14.4a3,3,0,0,0,6,0v-11.4h12.6a3,3,0,0,0,3-3V221.86A11.94,11.94,0,1,0,103,203l-.44.57-.68-.24c-6.91-2.46-11.7-6.25-14.24-11.28-4.48-8.9-.73-19-.57-19.41a3.5,3.5,0,0,0-4.66-4.49,3.46,3.46,0,0,0-1.86,1.93c-.19.49-4.72,12.28.18,23.69l.38.88-.87.41A35.67,35.67,0,0,0,59.4,224.86l-.08,1-1-.13a36.61,36.61,0,0,1-31.91-36.25,37.27,37.27,0,0,1,.76-7.44.78.78,0,0,0,0-.14l.05-.3c0-.08,1.27-12.83,14.48-20.91l.77-.47L43,161a23.84,23.84,0,0,0,10,7.3,3.5,3.5,0,0,0,2.72-6.45c-4.59-1.94-7.53-4.65-8.72-8-2-5.62,1.17-11.69,1.31-11.95a3.52,3.52,0,0,0-1.38-4.75,3.49,3.49,0,0,0-4.75,1.37c-.16.29-3.82,7-2.55,14.63l.11.69-.6.34a37.83,37.83,0,0,0-17,19.72l-.53,1.41-1.1-1a42.95,42.95,0,0,1,7.27-67.93l1-.59.46,1a36.31,36.31,0,0,0,4.62,7.87c4.41,5.67,12.72,12.6,27.28,13.44l.66,0,.23.62A12,12,0,0,0,70,136.17v14.18a3,3,0,0,0,3,3h27.61A11.93,11.93,0,1,0,115,139v-25.2a3,3,0,0,0-3-3h-9.6V93a11.93,11.93,0,0,0,.6-23.24V46a3,3,0,0,0-6,0V69.72a11.87,11.87,0,0,0-8.11,7.21l-.29.73-.77-.1C67.42,74.93,66.58,51,66.55,50A43.13,43.13,0,0,1,109.68,7c14.7,0,20.56,6.94,22.68,22a52.71,52.71,0,0,1,3.41-13.86C131.69,6.29,124,0,109.68,0a50.15,50.15,0,0,0-50,46.9l0,.73-.71.18a43.58,43.58,0,0,0-33,42.25,44.5,44.5,0,0,0,.73,8l.13.71-.63.35a50,50,0,0,0-6.68,83.46l.46.35-.08.58A43.54,43.54,0,0,0,58.7,232.88l.83.08.07.83c2.16,25.68,24.16,45.8,50.08,45.8,14.36,0,22-6.29,26.09-15.15a52.41,52.41,0,0,1-3.39-13.69A38.88,38.88,0,0,1,129.31,262.12Zm-17-56.67a4.94,4.94,0,1,1-4.94,4.94A5,5,0,0,1,112.33,205.45ZM68.2,124.65a4.94,4.94,0,1,1,4.94,4.95A5,5,0,0,1,68.2,124.65Zm49,25.89a4.94,4.94,0,1,1-4.94-4.94A5,5,0,0,1,117.18,150.54ZM100,76.33a4.95,4.95,0,1,1-4.94,4.94A4.94,4.94,0,0,1,100,76.33ZM58.92,55.05,60,54.73l.2,1.1a45.67,45.67,0,0,0,3.26,10.86C68.25,77.34,76.73,83.54,88,84.62l.63.06.22.6a12,12,0,0,0,7.63,7.37v21.1a3,3,0,0,0,3,3H109v22.3a12,12,0,0,0-8.3,8.3H76V136.22A11.93,11.93,0,1,0,62,120.42l-.26.69-.74,0C38.51,119.52,34.38,100.8,34.21,100a.6.6,0,0,1,0-.11l0-.17A36.59,36.59,0,0,1,58.92,55.05Z"/><path class="cls-1" d="M273.74,136.57A49.69,49.69,0,0,0,254.33,97l-.46-.35.08-.58a43.54,43.54,0,0,0-38.9-49.37l-.83-.08-.07-.83C212,20.12,190,0,164.13,0,151.35,0,142.58,5.06,138,15c-.11.25-.23.48-.34.73l-.24.61c-.2.49-.39,1-.57,1.49-3.14,8.92-3.43,20.3-3.43,32.16V229.58c0,11.86.29,23.24,3.43,32.15q.27.76.57,1.5l.24.61c.11.25.23.48.34.73,4.56,10,13.33,15,26.11,15a50.11,50.11,0,0,0,50-46.9l.05-.73.71-.18a43.57,43.57,0,0,0,33-42.25,44.5,44.5,0,0,0-.73-8l-.14-.71.64-.35A50,50,0,0,0,273.74,136.57Zm-109.61,136c-14.62,0-20.47-6.91-22.6-21.93-.21-1.5-.39-3.09-.53-4.76-.41-4.76-.56-10.18-.56-16.32V50c0-6.13.13-11.65.55-16.52.14-1.65.31-3.23.52-4.73a39,39,0,0,1,3.05-11.29C148,10.23,154,7,164.13,7a43.14,43.14,0,0,1,43.19,43l0,.2a1.28,1.28,0,0,1,0,.19c.08.78,1.75,19.6-17.91,28.28l-.66.29-.48-.53A34.4,34.4,0,0,0,174,69.55l-.64-.22,0-.68a11.89,11.89,0,0,0-9.08-11V42.35h12.6a3,3,0,0,0,3-3V25a3,3,0,1,0-6,0v11.4h-12.6a3,3,0,0,0-3,3V57.69a11.94,11.94,0,1,0,12.55,18.87l.44-.57.68.24c6.91,2.45,11.71,6.25,14.24,11.28,4.49,8.92.61,19.31.57,19.41s0,.16-.06.23H173a11.94,11.94,0,1,0-14.2,14.67V166a3,3,0,0,0,3,3h9.6v17.64a11.94,11.94,0,0,0-.6,23.31v17.25a3,3,0,0,0,3,3h6.6v12h-21.6a3,3,0,0,0,0,6h24.6a3,3,0,0,0,3-3v-18a3,3,0,0,0-3-3h-6.6V209.83a11.88,11.88,0,0,0,7.95-7.11l.29-.72.77.1c20.53,2.62,21.32,26.66,21.34,27.68l0,.17A43.2,43.2,0,0,1,164.13,272.59ZM161.41,64.25a4.95,4.95,0,1,1-4.95,5A5,5,0,0,1,161.41,64.25Zm.09,50.88a4.94,4.94,0,1,1,4.95-4.94A4.94,4.94,0,0,1,161.5,115.13Zm12.2,88.13a4.95,4.95,0,1,1,4.94-4.94A5,5,0,0,1,173.7,203.26Zm41.11,21.29-1.07.32-.2-1.11a45.16,45.16,0,0,0-3.25-10.85c-4.8-10.64-13.27-16.84-24.5-17.93l-.63-.06-.22-.59a12,12,0,0,0-7.5-7.35V166a3,3,0,0,0-3-3h-9.6v-41.3a12,12,0,0,0,8.22-8.5h24.78v30.18a11.94,11.94,0,1,0,13.91,15.84l.27-.69.74.05c22.47,1.54,26.6,20.26,26.77,21.06l.05.16a.59.59,0,0,1,0,.14,36.57,36.57,0,0,1-24.79,44.66ZM200.6,150a4.95,4.95,0,1,1-4.94,4.95A4.95,4.95,0,0,1,200.6,150ZM246,173.3l-1,.59-.46-1A35.91,35.91,0,0,0,240,165c-4.41-5.67-12.72-12.61-27.28-13.44l-.66,0-.22-.62a12,12,0,0,0-8-7.41V110.15a3,3,0,0,0-3-3H194c1.13-4.06,2.74-12.82-.93-21.36l-.38-.88.87-.41c17.31-8.32,20.31-23.59,20.79-29.77l.08-1,1,.13a36.61,36.61,0,0,1,31.91,36.25,37.2,37.2,0,0,1-.76,7.44s0,.1,0,.14l-.05.31a29.08,29.08,0,0,1-9.67,17.35l-.72.65-.67-.7c-5.48-5.72-13.69-6.1-15.29-6.12a3.59,3.59,0,0,0-3.49,3.59,3.62,3.62,0,0,0,3.5,3.63h0c.87,0,7.45.15,10.88,4.64,2.52,3.3,2.85,8.09,1,14.67a3.5,3.5,0,0,0,2.43,4.31,3.53,3.53,0,0,0,4.31-2.41c1.56-5.61,1.82-10.55.78-14.69l-.16-.63.5-.4a37.7,37.7,0,0,0,11.7-16.1l.53-1.41,1.09,1A42.94,42.94,0,0,1,246,173.3Z"/></g></g></svg>