<svg xmlns="http://www.w3.org/2000/svg" xmlns:xlink="http://www.w3.org/1999/xlink" viewBox="0 0 354.95 174.28"><defs><style>.cls-1{fill:none;}.cls-2{clip-path:url(#clip-path);}.cls-3{fill:#86cbef;}.cls-4{fill:#e3f2fa;}.cls-5{fill:#c9e8f8;}.cls-6{fill:#aad8f3;}.cls-7{fill:#67bcea;}.cls-8{fill:#050000;}.cls-9{fill:#231815;}</style><clipPath id="clip-path" transform="translate(0 0)"><rect class="cls-1" width="354.95" height="174.28"/></clipPath></defs><g id="レイヤー_2" data-name="レイヤー 2"><g id="レイヤー_1-2" data-name="レイヤー 1"><g class="cls-2"><path class="cls-3" d="M349.17,59.74l4.62.84a48.56,48.56,0,0,0-1.49-26.34l-4.49,1.49a44.24,44.24,0,0,1,1.36,24" transform="translate(0 0)"/><path class="cls-4" d="M311.65,5.35l1-4.45a55.67,55.67,0,0,0-27.56,2l1.47,4.27a50.57,50.57,0,0,1,25.12-1.78" transform="translate(0 0)"/><path class="cls-5" d="M312.62.9l-1,4.45a48.56,48.56,0,0,1,22.43,10.47l3.16-3.43A53.28,53.28,0,0,0,312.62.9" transform="translate(0 0)"/><path class="cls-6" d="M347.81,35.73l4.49-1.49a49.38,49.38,0,0,0-15.06-21.85l-3.16,3.43a44.91,44.91,0,0,1,13.73,19.91" transform="translate(0 0)"/><path class="cls-7" d="M337.78,81.42l3.51,3a51.66,51.66,0,0,0,12.5-23.79l-4.62-.84a47.16,47.16,0,0,1-11.39,21.68" transform="translate(0 0)"/><path class="cls-6" d="M312.52,14.68a38.61,38.61,0,0,1,15.36,7.87l1.89-2.06a42.2,42.2,0,0,0-19.45-9.08l-.59,2.67c.93.17,1.86.36,2.79.6" transform="translate(0 0)"/><path class="cls-3" d="M338.94,38.67l2.74-.91a39,39,0,0,0-11.91-17.27l-1.89,2.06a36.59,36.59,0,0,1,11.06,16.12" transform="translate(0 0)"/><path class="cls-7" d="M340,58.05l2.91.53a38.44,38.44,0,0,0-1.18-20.82l-2.74.91a35.76,35.76,0,0,1,1,19.38" transform="translate(0 0)"/><path class="cls-5" d="M309.73,14.08l.58-2.67A43.87,43.87,0,0,0,288.53,13l.88,2.57a40.71,40.71,0,0,1,20.32-1.45" transform="translate(0 0)"/><path class="cls-4" d="M289.41,15.53,288.53,13A43.22,43.22,0,0,0,270.24,24.7l2.16,1.81a40.63,40.63,0,0,1,17-11" transform="translate(0 0)"/><path class="cls-3" d="M310.18,22.49a30.29,30.29,0,0,1,12.05,6.18l1.48-1.6A33.07,33.07,0,0,0,308.44,20L308,22c.73.13,1.46.28,2.19.47" transform="translate(0 0)"/><path class="cls-5" d="M292,23.16l-.68-2A34,34,0,0,0,277,30.37l1.69,1.42A31.91,31.91,0,0,1,292,23.16" transform="translate(0 0)"/><path class="cls-4" d="M278.69,31.79,277,30.37a32.06,32.06,0,0,0-7.75,14.76l2.31.42c.16-.74.34-1.49.56-2.24a29.77,29.77,0,0,1,6.57-11.52" transform="translate(0 0)"/><path class="cls-6" d="M308,22l.45-2.07a34.47,34.47,0,0,0-17.1,1.21l.69,2A32,32,0,0,1,308,22" transform="translate(0 0)"/><path class="cls-7" d="M330.91,41.33l2.14-.71a30.68,30.68,0,0,0-9.34-13.55l-1.48,1.6a28.71,28.71,0,0,1,8.68,12.66" transform="translate(0 0)"/><polygon class="cls-8" points="25.03 84.63 24.76 84.63 9.62 48.57 0 48.57 0 96.21 6.46 96.21 6.46 57.05 6.6 57.05 22.68 96.21 26.98 96.21 43.06 57.05 43.19 57.05 43.19 96.21 49.65 96.21 49.65 48.57 40.03 48.57 25.03 84.63"/><path class="cls-8" d="M72.81,63.51c-9.55,0-16.48,7.2-16.48,16.74S62.65,97,72.75,97c6.11,0,10.76-2.16,14.13-6.52L82.3,87c-2.35,2.89-5,4.78-8.75,4.78-5.58,0-10.76-3.7-10.76-9.29H88.36V80.32c0-8.2-4.3-16.81-15.55-16.81m-10,14.13a9.83,9.83,0,0,1,9.88-9.29c6.12,0,9.09,4,9.23,9.29Z" transform="translate(0 0)"/><path class="cls-8" d="M119.84,48.57V68.89h-.13c-2.15-3.29-6.53-5.38-11.1-5.38-9.82,0-16.21,7.2-16.21,16.75s6.32,15.95,16.21,15.95H125.9V48.57Zm-10.49,42.8c-6.47,0-10.5-4.65-10.5-11.11s4-11.1,10.5-11.1,10.49,4.64,10.49,11.1-4,11.11-10.49,11.11" transform="translate(0 0)"/><rect class="cls-8" x="133.84" y="64.31" width="6.06" height="31.9"/><path class="cls-8" d="M160.63,63.51A18.81,18.81,0,0,0,148,68.21L151.61,72c2.22-1.68,4.44-3.63,9.08-3.63,5.18,0,7.61,3.43,7.61,6.73v1.35h-4.45c-9.68,0-17.56,2.81-17.56,11,0,6.19,5.12,8.75,11,8.75h16.61V74.14c0-5.52-3.89-10.63-13.31-10.63m7.67,19.37c0,4.31-2.36,9.29-9.09,9.29-4.17,0-6.87-1.55-6.87-5.18,0-5.11,7-6.13,12.72-6.13h3.24Z" transform="translate(0 0)"/><path class="cls-8" d="M251,63.51a18.82,18.82,0,0,0-12.66,4.7L242,72c2.22-1.68,4.45-3.63,9.1-3.63,5.17,0,7.59,3.43,7.59,6.73v1.35h-4.43c-9.71,0-17.56,2.81-17.56,11,0,6.19,5.1,8.75,11,8.75H264.3V74.14c0-5.52-3.91-10.63-13.32-10.63m7.66,19.37c0,4.31-2.35,9.29-9.08,9.29-4.17,0-6.87-1.55-6.87-5.18,0-5.11,7-6.13,12.72-6.13h3.23Z" transform="translate(0 0)"/><polygon class="cls-8" points="207.19 84.63 206.92 84.63 191.78 48.57 182.16 48.57 182.16 96.21 188.62 96.21 188.62 57.05 188.75 57.05 204.84 96.21 209.14 96.21 225.22 57.05 225.36 57.05 225.36 96.21 231.82 96.21 231.82 48.57 222.2 48.57 207.19 84.63"/><path class="cls-8" d="M282,84V69.56h8.67V64.31H282v-9H276v9h-7v5.25h7V86.19c0,5.11.13,10.83,9.49,10.83a13.76,13.76,0,0,0,5.45-1.08V90.42a8.54,8.54,0,0,1-4.31,1C282,91.37,282,87.59,282,84" transform="translate(0 0)"/><path class="cls-8" d="M313.51,63.51H303l-.14-14.94h-6.05V96.21h6.05V79.79c0-7.4,3.84-10.63,8.88-10.63,3.84,0,7.28,2.22,7.28,8.2V96.21h6V75.68c0-8.47-5.36-12.17-11.57-12.17" transform="translate(0 0)"/><rect class="cls-8" x="133.84" y="53.13" width="6.06" height="6.05"/><path class="cls-9" d="M276.53,123.09A18.66,18.66,0,0,0,264,127.75l3.6,3.73c2.2-1.66,4.41-3.59,9-3.59,5.12,0,7.53,3.4,7.53,6.67v1.34h-4.4c-9.62,0-17.4,2.78-17.4,10.92,0,6.14,5.06,8.68,10.93,8.68h16.47V133.62c0-5.46-3.87-10.53-13.2-10.53m7.6,19.2c0,4.27-2.34,9.2-9,9.2-4.13,0-6.8-1.53-6.8-5.13,0-5.06,6.94-6.08,12.61-6.08h3.2Z" transform="translate(0 0)"/><path class="cls-9" d="M204.14,123.27a18.6,18.6,0,0,0-12.54,4.67l3.6,3.73c2.2-1.67,4.41-3.6,9-3.6,5.12,0,7.52,3.4,7.52,6.67v1.34h-4.39c-9.62,0-17.4,2.79-17.4,10.93,0,6.13,5.06,8.67,10.93,8.67h16.47V133.81c0-5.47-3.87-10.54-13.2-10.54m7.59,19.2c0,4.27-2.33,9.2-9,9.2-4.13,0-6.8-1.53-6.8-5.13,0-5.06,6.94-6.08,12.61-6.08h3.19Z" transform="translate(0 0)"/><path class="cls-9" d="M183.41,108.62v33.83c0,9.88-6.69,14.32-13.73,14.32s-11.47-3.71-12.73-10.28l6.23-1.39c.73,3.51,3,5.7,6.5,5.7,4.91,0,7.37-3.25,7.37-10.34V108.62Z" transform="translate(0 0)"/><path class="cls-9" d="M257.76,139.86c0,9.68-6.56,16.51-16,16.51-4.58,0-8.89-2.12-10.95-5.3h-.13v23.21h-6V124.14h6v4.51h.13a13.3,13.3,0,0,1,11-5.31c9.15,0,15.91,6.63,15.91,16.52M241.05,150.8c6.23,0,10.35-4.31,10.35-10.94s-4.25-11-10.42-11-10.28,4.32-10.28,11,4.11,10.94,10.35,10.94" transform="translate(0 0)"/><path class="cls-9" d="M325,135.08v20.5h-6V136.81c0-4.84-2.66-7.9-7.17-7.9-5.5,0-8.75,3.92-8.75,10.22v16.45h-6V124.14h6V129h.13c1.66-3.51,5.77-5.64,10.35-5.64,7,0,11.41,4.65,11.41,11.74" transform="translate(0 0)"/></g></g></g></svg>