<svg xmlns="http://www.w3.org/2000/svg" xmlns:xlink="http://www.w3.org/1999/xlink" viewBox="0 0 794.07 174.28"><defs><style>.cls-1{fill:none;}.cls-2{clip-path:url(#clip-path);}.cls-3{fill:#86cbef;}.cls-4{fill:#e3f2fa;}.cls-5{fill:#c9e8f8;}.cls-6{fill:#aad8f3;}.cls-7{fill:#67bcea;}.cls-8{fill:#050000;}.cls-9{fill:#231815;}</style><clipPath id="clip-path" transform="translate(0 0)"><rect class="cls-1" width="794.07" height="174.28"/></clipPath></defs><g id="レイヤー_2" data-name="レイヤー 2"><g id="レイヤー_1-2" data-name="レイヤー 1"><g class="cls-2"><path class="cls-3" d="M532.72,91.14l7,1.29a74.06,74.06,0,0,0-2.27-40.2l-6.86,2.27a67.48,67.48,0,0,1,2.08,36.64" transform="translate(0 0)"/><path class="cls-4" d="M475.48,8.16,477,1.38a84.6,84.6,0,0,0-42,3l2.24,6.51a77.17,77.17,0,0,1,38.33-2.72" transform="translate(0 0)"/><path class="cls-5" d="M477,1.38l-1.48,6.78a74,74,0,0,1,34.22,16l4.82-5.23A81.33,81.33,0,0,0,477,1.38" transform="translate(0 0)"/><path class="cls-6" d="M530.64,54.51l6.86-2.28a75.31,75.31,0,0,0-23-33.33l-4.82,5.23a68.54,68.54,0,0,1,20.94,30.38" transform="translate(0 0)"/><path class="cls-7" d="M515.34,124.22l5.37,4.51a79,79,0,0,0,19.06-36.3l-7-1.29a71.85,71.85,0,0,1-17.38,33.08" transform="translate(0 0)"/><path class="cls-6" d="M476.81,22.4a58.9,58.9,0,0,1,23.43,12l2.89-3.14a64.36,64.36,0,0,0-29.69-13.85l-.89,4.07c1.42.26,2.84.55,4.26.92" transform="translate(0 0)"/><path class="cls-3" d="M517.11,59l4.18-1.38a59.41,59.41,0,0,0-18.16-26.35l-2.89,3.14A55.79,55.79,0,0,1,517.11,59" transform="translate(0 0)"/><path class="cls-7" d="M518.65,88.57l4.44.81a58.46,58.46,0,0,0-1.8-31.77L517.11,59a54.37,54.37,0,0,1,1.54,29.58" transform="translate(0 0)"/><path class="cls-5" d="M472.55,21.48l.89-4.07a67.08,67.08,0,0,0-33.24,2.36l1.35,3.92a62.19,62.19,0,0,1,31-2.21" transform="translate(0 0)"/><path class="cls-4" d="M441.55,23.69l-1.35-3.92a66.06,66.06,0,0,0-27.9,17.91l3.3,2.77a61.9,61.9,0,0,1,25.95-16.76" transform="translate(0 0)"/><path class="cls-3" d="M473.23,34.31a46.32,46.32,0,0,1,18.4,9.43l2.24-2.44a50.41,50.41,0,0,0-23.29-10.87l-.69,3.16c1.12.21,2.23.44,3.34.72" transform="translate(0 0)"/><path class="cls-5" d="M445.55,35.34l-1.05-3.06a51.79,51.79,0,0,0-21.89,14.06l2.58,2.17a48.49,48.49,0,0,1,20.36-13.17" transform="translate(0 0)"/><path class="cls-4" d="M425.19,48.51l-2.58-2.17a49,49,0,0,0-11.83,22.51l3.53.65c.25-1.14.52-2.28.87-3.42a45.1,45.1,0,0,1,10-17.57" transform="translate(0 0)"/><path class="cls-6" d="M469.89,33.59l.69-3.16a52.66,52.66,0,0,0-26.08,1.85l1.05,3.06a48.72,48.72,0,0,1,24.34-1.75" transform="translate(0 0)"/><path class="cls-7" d="M504.86,63.06,508.12,62A46.64,46.64,0,0,0,493.87,41.3l-2.24,2.44a43.72,43.72,0,0,1,13.23,19.32" transform="translate(0 0)"/><polygon class="cls-8" points="38.19 129.12 37.78 129.12 14.68 74.1 0 74.1 0 146.79 9.85 146.79 9.85 87.04 10.07 87.04 34.6 146.79 41.17 146.79 65.69 87.04 65.9 87.04 65.9 146.79 75.76 146.79 75.76 74.1 61.08 74.1 38.19 129.12"/><path class="cls-8" d="M111.09,96.89c-14.58,0-25.15,11-25.15,25.55S95.58,148,111,148c9.33,0,16.42-3.29,21.56-10l-7-5.35c-3.6,4.41-7.71,7.29-13.36,7.29-8.51,0-16.42-5.65-16.42-14.17h39v-3.29c0-12.52-6.57-25.66-23.72-25.66m-15.3,21.56c0-6.47,5.95-14.17,15.09-14.17,9.34,0,13.86,6.06,14.07,14.17Z" transform="translate(0 0)"/><path class="cls-8" d="M182.85,74.1v31h-.21c-3.29-5-10-8.21-16.94-8.21-15,0-24.73,11-24.73,25.55,0,14.38,9.64,24.35,24.73,24.35h26.38V74.1Zm-16,65.3c-9.87,0-16-7.1-16-17s6.15-16.93,16-16.93,16,7.09,16,16.93-6.17,17-16,17" transform="translate(0 0)"/><rect class="cls-8" x="204.2" y="98.11" width="9.25" height="48.67"/><path class="cls-8" d="M245.07,96.89c-6.78,0-14.17,2.35-19.3,7.18l5.53,5.74c3.39-2.56,6.79-5.53,13.86-5.53,7.91,0,11.61,5.23,11.61,10.27v2.06H250c-14.78,0-26.79,4.29-26.79,16.83,0,9.44,7.81,13.35,16.83,13.35h25.35V113.11c0-8.42-5.94-16.22-20.31-16.22m11.7,29.56c0,6.58-3.6,14.17-13.86,14.17-6.36,0-10.48-2.36-10.48-7.9,0-7.8,10.7-9.36,19.4-9.36h4.94Z" transform="translate(0 0)"/><path class="cls-8" d="M382.91,96.89c-6.78,0-14.18,2.35-19.31,7.18l5.54,5.74c3.39-2.56,6.8-5.53,13.88-5.53,7.89,0,11.59,5.23,11.59,10.27v2.06h-6.77c-14.8,0-26.78,4.29-26.78,16.83,0,9.44,7.78,13.35,16.82,13.35h25.36V113.11c0-8.42-6-16.22-20.33-16.22m11.7,29.56c0,6.58-3.6,14.17-13.87,14.17-6.36,0-10.46-2.36-10.46-7.9,0-7.8,10.68-9.36,19.4-9.36h4.93Z" transform="translate(0 0)"/><polygon class="cls-8" points="316.11 129.12 315.69 129.12 292.6 74.1 277.91 74.1 277.91 146.79 287.77 146.79 287.77 87.04 287.98 87.04 312.52 146.79 319.09 146.79 343.62 87.04 343.83 87.04 343.83 146.79 353.69 146.79 353.69 74.1 339.01 74.1 316.11 129.12"/><path class="cls-8" d="M430.29,128.19V106.13h13.23v-8H430.29V84.47h-9.24V98.11H410.37v8h10.68v25.36c0,7.8.2,16.53,14.47,16.53,1.85,0,6.15-.42,8.32-1.64V138a13.18,13.18,0,0,1-6.58,1.43c-7,0-7-5.75-7-11.2" transform="translate(0 0)"/><path class="cls-8" d="M478.32,96.89h-16l-.21-22.79h-9.25v72.69h9.25V121.73c0-11.29,5.86-16.22,13.54-16.22,5.86,0,11.1,3.39,11.1,12.52v28.76H496V115.47c0-12.93-8.18-18.58-17.65-18.58" transform="translate(0 0)"/><rect class="cls-8" x="204.2" y="81.06" width="9.25" height="9.24"/><path class="cls-9" d="M720.1,96.18c-6.72,0-14.05,2.33-19.14,7.11l5.49,5.69c3.37-2.53,6.74-5.48,13.76-5.48,7.81,0,11.48,5.18,11.48,10.18v2H725c-14.67,0-26.54,4.25-26.54,16.67,0,9.35,7.72,13.23,16.67,13.23h25.13V112.25c0-8.34-5.91-16.07-20.14-16.07m11.59,29.29c0,6.51-3.56,14-13.74,14-6.3,0-10.37-2.34-10.37-7.83,0-7.73,10.58-9.27,19.23-9.27h4.88Z" transform="translate(0 0)"/><path class="cls-9" d="M609.65,96.46c-6.71,0-14,2.33-19.13,7.11l5.49,5.69c3.36-2.54,6.73-5.48,13.75-5.48,7.82,0,11.48,5.18,11.48,10.18v2h-6.7c-14.67,0-26.54,4.26-26.54,16.68,0,9.35,7.71,13.23,16.67,13.23H629.8V112.53c0-8.34-5.91-16.07-20.15-16.07m11.59,29.28c0,6.52-3.56,14-13.73,14-6.31,0-10.38-2.34-10.38-7.83,0-7.73,10.59-9.27,19.23-9.27h4.88Z" transform="translate(0 0)"/><path class="cls-9" d="M578,74.1v51.61c0,15.08-10.22,21.86-20.95,21.86-10.53,0-17.51-5.67-19.43-15.69l9.51-2.12c1.12,5.36,4.56,8.7,9.92,8.7,7.49,0,11.23-5,11.23-15.79V74.1Z" transform="translate(0 0)"/><path class="cls-9" d="M691.47,121.76c0,14.78-10,25.2-24.39,25.2-7,0-13.56-3.24-16.7-8.1h-.2v35.42h-9.11V97.78h9.11v6.88h.2c3.65-5.16,9.92-8.09,16.8-8.09,14,0,24.29,10.11,24.29,25.19M666,138.46c9.51,0,15.79-6.58,15.79-16.7s-6.48-16.7-15.89-16.7c-9.21,0-15.69,6.58-15.69,16.7,0,9.92,6.28,16.7,15.79,16.7" transform="translate(0 0)"/><path class="cls-9" d="M794.07,114.48v31.27H785V117.11c0-7.39-4.05-12-10.93-12-8.4,0-13.36,6-13.36,15.59v25.1h-9.11v-48h9.11v7.39h.2c2.53-5.37,8.81-8.61,15.79-8.61,10.73,0,17.4,7.09,17.4,17.92" transform="translate(0 0)"/></g></g></g></svg>