<svg xmlns="http://www.w3.org/2000/svg" viewBox="0 0 319.15 319.96"><defs><style>.cls-1{fill:#54bceb;}</style></defs><g id="Layer_2" data-name="Layer 2"><g id="Layer_1-2" data-name="Layer 1"><path class="cls-1" d="M272.16,264.59V82.3c0-6.92-4.39-9.78-7-10.87a13.58,13.58,0,0,0-2-.64,11.84,11.84,0,0,0-2.86-.35H58.48a12.49,12.49,0,0,0-8.57,3.42,11.47,11.47,0,0,0-3.3,8.44V264.59c0,8.7,7.1,11.86,11.87,11.86H260.3C265.07,276.45,272.16,273.29,272.16,264.59Zm-138.45-152c2.65-2,4.17-5.34,5.64-8.56,1.92-4.23,2.82-5.67,3.82-6.16a1.48,1.48,0,0,1,.61-.15h.14c1.16,0,3,.93,5.87,2.54s6.31,3.54,9.79,3.54,6.82-1.88,9.78-3.54l.85-.5.09,0c2.09-1.24,3.55-2,4.7-2a2.09,2.09,0,0,1,.87.18c1.18.55,2.21,2.44,3.94,6.21,1.46,3.21,3,6.52,5.63,8.54s6.46,2.59,9.76,3.06c4.55.64,6.06,1.11,6.74,2.08s.64,2.76-.19,7.57c-.58,3.37-1.24,7.18-.22,10.46s3.51,5.69,5.95,8.11c3,3,4.51,4.76,4.51,6.25s-1.52,3.29-4.51,6.26c-2.44,2.43-5,4.94-6,8.12s-.35,7.1.23,10.46c.83,4.8.88,6.57.19,7.57s-2.27,1.45-6.8,2.08c-3.27.46-7,1-9.7,3.05s-4.17,5.34-5.64,8.55c-1.93,4.25-2.83,5.69-3.82,6.17a1.38,1.38,0,0,1-.79.15c-1-.08-3.11-1-5.83-2.53-3-1.66-6.31-3.55-9.78-3.55s-6.85,1.89-9.8,3.56l-.85.48c-2.17,1.26-3.69,2.08-4.86,2.08a1.73,1.73,0,0,1-.41,0,1.34,1.34,0,0,1-.37-.11c-1.2-.55-2.22-2.44-3.94-6.2-1.47-3.21-3-6.54-5.64-8.55s-6.43-2.6-9.69-3.06c-4.55-.63-6.14-1.12-6.81-2.09s-.65-2.76.18-7.57c.59-3.36,1.25-7.16.23-10.45s-3.52-5.7-6-8.12c-3-3-4.5-4.75-4.5-6.26s1.52-3.27,4.51-6.25c2.44-2.42,5-4.92,6-8.11s.36-7.11-.23-10.48c-.83-4.8-.87-6.56-.18-7.55s2.2-1.44,6.8-2.09C127.28,115.17,131,114.65,133.71,112.58Zm6.67,124.13a1.49,1.49,0,0,1-1.3.83,1.54,1.54,0,0,1-1.36-.75L132.13,227a3.56,3.56,0,0,0-3.07-1.81,4.13,4.13,0,0,0-.68.07l-10.61,1.93a1.5,1.5,0,0,1-1.62-2.14l13.39-27.16a1.49,1.49,0,0,1,1.34-.84,1.51,1.51,0,0,1,1.37.86c.2.42.4.85.57,1.24,1.93,4.22,3.92,8.58,8.29,10.07a8.61,8.61,0,0,0,2.72.44c3,0,5.83-1.45,8.29-2.81a1.54,1.54,0,0,1,1.77.23,1.51,1.51,0,0,1,.31,1.76h0ZM178,91a8.5,8.5,0,0,0-2.71-.44c-3.37,0-6.76,1.91-9.48,3.44s-4.79,2.63-6.27,2.63S156,95.52,153.3,94s-6.09-3.44-9.49-3.44a8.43,8.43,0,0,0-2.7.43c-4.37,1.49-6.37,5.88-8.3,10.12-.32.68-.61,1.31-.9,1.9H54.06V82.3a5.57,5.57,0,0,1,.3-1.9A3.87,3.87,0,0,1,57.56,78a7,7,0,0,1,.92-.08H260.3a5.71,5.71,0,0,1,.7.05c.2,0,.43.07.68.13a4.55,4.55,0,0,1,.76.27,3.93,3.93,0,0,1,2.28,4V103H187.24c-.3-.6-.6-1.25-.92-1.95C184.4,96.82,182.4,92.46,178,91Zm-66.72,22.64c-2.58,3.72-1.77,8.4-1,12.93.54,3.18.9,5.56.43,7.07s-2,3-4.17,5.17c-3.1,3.08-6.61,6.57-6.61,11.32s3.53,8.27,6.65,11.37c2.15,2.14,3.71,3.77,4.13,5.13.47,1.52.11,3.91-.44,7.12-.78,4.5-1.59,9.16,1,12.88,2.45,3.51,6.66,4.37,11.13,5a1.53,1.53,0,0,1,1.12.79,1.48,1.48,0,0,1,0,1.36L105.24,231a3.58,3.58,0,0,0,.36,3.75,3.52,3.52,0,0,0,3.5,1.37l17-3.11a1.51,1.51,0,0,1,1.58.73l8.53,14.89a3.57,3.57,0,0,0,3.1,1.8h.12a3.61,3.61,0,0,0,3.1-2L163.62,206l.08-.06a.91.91,0,0,1,.13-.1,1.55,1.55,0,0,1,1.36.06l.74.41c2.84,1.6,6.06,3.42,9.36,3.42a8.23,8.23,0,0,0,2.75-.46c4.35-1.48,6.35-5.84,8.28-10.06l.58-1.24a1.49,1.49,0,0,1,1.34-.86,1.53,1.53,0,0,1,1.37.84L203,225.09a1.47,1.47,0,0,1-.15,1.57,1.51,1.51,0,0,1-1.46.57l-10.63-1.93A3.53,3.53,0,0,0,187,227l-5.57,9.72a1.5,1.5,0,0,1-1.29.76,1.55,1.55,0,0,1-1.36-.84L173,224.89a3.58,3.58,0,0,0-6.43,3.17l10,20.37a3.62,3.62,0,0,0,3.07,2h.15a3.6,3.6,0,0,0,3.11-1.8l8.53-14.89A1.52,1.52,0,0,1,193,233l17,3.11a3.51,3.51,0,0,0,3.49-1.37,3.58,3.58,0,0,0,.36-3.75l-18.33-37.22a1.48,1.48,0,0,1,0-1.36,1.53,1.53,0,0,1,1.12-.79c4.47-.64,8.68-1.5,11.13-5,2.58-3.72,1.77-8.38,1-12.89-.54-3.1-.92-5.59-.45-7.1s2-3,4.17-5.17c3.1-3.08,6.62-6.57,6.62-11.34s-3.52-8.25-6.62-11.33c-2.17-2.15-3.74-3.79-4.16-5.16-.48-1.52-.1-4,.44-7.12.78-4.5,1.59-9.16-1-12.88a9.53,9.53,0,0,0-3.88-3.19h60.77V264.59c0,3.76-2.79,4.38-4.44,4.42H58.48a4.1,4.1,0,0,1-4.42-4.42V110.43h61.13A9.43,9.43,0,0,0,111.32,113.62Z"/><path class="cls-1" d="M308.86,152.27H280.7a3.72,3.72,0,1,0,0,7.44h28.16a2.56,2.56,0,0,1,2.85,2.85v16h-31a3.72,3.72,0,1,0,0,7.44h31V309.67a2.57,2.57,0,0,1-2.85,2.85H187.38a2.56,2.56,0,0,1-2.85-2.85V289.11a3.72,3.72,0,1,0-7.44,0v20.56c0,7.55,6.15,10.29,10.29,10.29H308.86c4.14,0,10.29-2.74,10.29-10.29V162.56C319.15,155,313,152.27,308.86,152.27Z"/><path class="cls-1" d="M38.31,160.25h-28c-1.95-.05-2.9-1-2.9-2.85V33.71h88.3v27a3.72,3.72,0,1,0,7.44,0V10.29C103.18,2.74,97,0,92.89,0H10.29C6.16,0,0,2.74,0,10.29V157.4c0,7.55,6.16,10.29,10.29,10.29h28a3.72,3.72,0,1,0,0-7.44ZM7.44,10.29a2.57,2.57,0,0,1,2.85-2.85H92.85c1.94,0,2.89,1,2.89,2.85v16H7.44Z"/><path class="cls-1" d="M159.58,184.25a34.13,34.13,0,1,0-34.14-34.13A34.17,34.17,0,0,0,159.58,184.25Zm-27-34.13a27,27,0,1,1,27,26.95A27,27,0,0,1,132.62,150.12Z"/></g></g></svg>