<svg xmlns="http://www.w3.org/2000/svg" viewBox="0 0 272.94 294.26"><defs><style>.cls-1{fill:#54bceb;}</style></defs><g id="Layer_2" data-name="Layer 2"><g id="Layer_1-2" data-name="Layer 1"><path class="cls-1" d="M142.84,294.26H129.9a17.21,17.21,0,0,1-17.18-17.19,8.19,8.19,0,0,0-14-5.79,17.2,17.2,0,0,1-24.3,0l-9.15-9.15a17.19,17.19,0,0,1,0-24.3,8.19,8.19,0,0,0-5.79-14,17.21,17.21,0,0,1-17.18-17.19V193.73A17.2,17.2,0,0,1,59.5,176.55a8.19,8.19,0,0,0,5.79-14,17.21,17.21,0,0,1,0-24.31l9.15-9.15a17.19,17.19,0,0,1,24.3,0,8.19,8.19,0,0,0,14-5.78,17.21,17.21,0,0,1,17.18-17.19h12.94A17.2,17.2,0,0,1,160,123.34a8.19,8.19,0,0,0,14,5.78,17.2,17.2,0,0,1,24.3,0l9.15,9.15a17.21,17.21,0,0,1,0,24.31,8.19,8.19,0,0,0,5.79,14,17.2,17.2,0,0,1,17.18,17.18v12.94a17.21,17.21,0,0,1-17.18,17.19,8.19,8.19,0,0,0-5.79,14,17.19,17.19,0,0,1,0,24.3l-9.15,9.15a17.2,17.2,0,0,1-24.3,0,8.19,8.19,0,0,0-14,5.79A17.2,17.2,0,0,1,142.84,294.26Zm-38.42-34.42a17.42,17.42,0,0,1,6.69,1.35,16.93,16.93,0,0,1,10.61,15.88,8.2,8.2,0,0,0,8.18,8.19h12.94a8.2,8.2,0,0,0,8.18-8.19,17.18,17.18,0,0,1,29.34-12.15,8.2,8.2,0,0,0,11.58,0l9.15-9.15a8.2,8.2,0,0,0,0-11.57,17.18,17.18,0,0,1,12.15-29.34,8.19,8.19,0,0,0,8.18-8.19V193.73a8.19,8.19,0,0,0-8.18-8.18,17.18,17.18,0,0,1-12.15-29.34,8.2,8.2,0,0,0,0-11.57l-9.15-9.15a8.18,8.18,0,0,0-11.58,0A17.19,17.19,0,0,1,151,123.34a8.19,8.19,0,0,0-8.18-8.19H129.9a8.19,8.19,0,0,0-8.18,8.19,17.19,17.19,0,0,1-29.34,12.15,8.18,8.18,0,0,0-11.58,0l-9.14,9.15a8.17,8.17,0,0,0,0,11.57A17.19,17.19,0,0,1,59.5,185.55a8.19,8.19,0,0,0-8.18,8.18v12.94a8.19,8.19,0,0,0,8.18,8.19,17.18,17.18,0,0,1,12.16,29.33,8.18,8.18,0,0,0,0,11.58l9.14,9.15a8.2,8.2,0,0,0,11.58,0A17,17,0,0,1,104.42,259.84Zm32-32A27.64,27.64,0,1,1,164,200.2,27.66,27.66,0,0,1,136.37,227.84Zm0-46.27A18.64,18.64,0,1,0,155,200.2,18.65,18.65,0,0,0,136.37,181.57Z"/><path class="cls-1" d="M135.84,49.08a24.54,24.54,0,1,1,24.54-24.54A24.57,24.57,0,0,1,135.84,49.08Zm0-40.08a15.54,15.54,0,1,0,15.54,15.54A15.56,15.56,0,0,0,135.84,9Z"/><path class="cls-1" d="M94,117.64a4.22,4.22,0,0,1-.79-.07,4.51,4.51,0,0,1-3.65-5.22L95.82,77a28.34,28.34,0,0,1,20.9-23.06l7-1.82A4.5,4.5,0,1,1,126,60.8l-7,1.82A19.34,19.34,0,0,0,104.71,78.4a.44.44,0,0,0,0,.1L98.4,113.92A4.49,4.49,0,0,1,94,117.64Z"/><path class="cls-1" d="M178.76,117.89a4.5,4.5,0,0,1-4.42-3.72L168,78.5s0-.06,0-.1a19.35,19.35,0,0,0-14.28-15.78l-7-1.82A4.5,4.5,0,1,1,149,52.09l7,1.81A28.37,28.37,0,0,1,176.88,77l6.32,35.63a4.51,4.51,0,0,1-3.65,5.22A5.27,5.27,0,0,1,178.76,117.89Z"/><path class="cls-1" d="M226.9,87.33a24.54,24.54,0,1,1,24.54-24.54A24.56,24.56,0,0,1,226.9,87.33Zm0-40.08a15.54,15.54,0,1,0,15.53,15.54A15.56,15.56,0,0,0,226.9,47.25Z"/><path class="cls-1" d="M191.32,120.47a4,4,0,0,1-.69-.06,4.5,4.5,0,0,1-3.76-5.13,28.33,28.33,0,0,1,20.91-23.12l7-1.82A4.5,4.5,0,0,1,217,99.05l-7,1.82a19.36,19.36,0,0,0-14.28,15.78A4.5,4.5,0,0,1,191.32,120.47Z"/><path class="cls-1" d="M210.39,182.67a14.51,14.51,0,0,1-13.1-8.35,14.53,14.53,0,0,1,6.7-19l35.43-18.21L237,124.15a4.5,4.5,0,1,1,8.85-1.64l3,16.21a4.5,4.5,0,0,1-2.37,4.82L208.07,163.3l-.08,0a5.43,5.43,0,0,0,.53,10,5.4,5.4,0,0,0,4.14-.17l47.44-23a6.83,6.83,0,0,0,3.73-7.34l-4.76-26.07a.5.5,0,0,1,0-.12,19.36,19.36,0,0,0-14.28-15.78l-7-1.82A4.5,4.5,0,0,1,240,90.34l7,1.82a28.34,28.34,0,0,1,20.9,23l4.75,26A15.85,15.85,0,0,1,264,158.28l-47.48,23-.05,0A14.43,14.43,0,0,1,210.39,182.67Zm4.2-5.45h0Z"/><path class="cls-1" d="M46,87.33A24.54,24.54,0,1,1,70.58,62.79,24.57,24.57,0,0,1,46,87.33Zm0-40.08A15.54,15.54,0,1,0,61.58,62.79,15.56,15.56,0,0,0,46,47.25Z"/><path class="cls-1" d="M81.62,120.47a4.52,4.52,0,0,1-4.45-3.82A19.34,19.34,0,0,0,62.9,100.87l-7-1.82a4.5,4.5,0,1,1,2.26-8.71l7,1.82a28.35,28.35,0,0,1,20.91,23.12,4.5,4.5,0,0,1-3.76,5.13A4,4,0,0,1,81.62,120.47Z"/><path class="cls-1" d="M62.55,182.67a14.37,14.37,0,0,1-6.11-1.37l-.06,0-47.47-23A15.83,15.83,0,0,1,.26,141.22l4.74-26a28.36,28.36,0,0,1,20.9-23l7-1.82a4.5,4.5,0,0,1,2.27,8.71l-7,1.82a19.35,19.35,0,0,0-14.28,15.78s0,.08,0,.12L9.11,142.84a6.81,6.81,0,0,0,3.72,7.34l47.45,23A5.44,5.44,0,0,0,65,163.34l-.08,0L26.42,143.54a4.5,4.5,0,0,1-2.37-4.82l3-16.21a4.5,4.5,0,1,1,8.85,1.64l-2.39,12.92L69,155.28a14.51,14.51,0,0,1,6.69,19,14.49,14.49,0,0,1-13.09,8.35Z"/></g></g></svg>