<svg xmlns="http://www.w3.org/2000/svg" viewBox="0 0 463.43 463.43"><defs><style>.cls-1{fill:#b0b0b0;}.cls-2{fill:#55bdec;}.cls-3{fill:#77caef;}.cls-4{fill:#99d6f2;}.cls-5{fill:#bae5f7;}.cls-6{fill:#dcf1fa;}</style></defs><g id="Layer_2" data-name="Layer 2"><g id="Layer_1-2" data-name="Layer 1"><circle class="cls-1" cx="147.66" cy="185.49" r="4.27"/><circle class="cls-1" cx="165.85" cy="189.03" r="4.27"/><circle class="cls-1" cx="147.66" cy="240.27" r="4.27"/><path class="cls-1" d="M165.85,239.54a4.27,4.27,0,1,0,4.27,4.27A4.27,4.27,0,0,0,165.85,239.54Z"/><circle class="cls-1" cx="147.66" cy="295.04" r="4.27"/><path class="cls-1" d="M165.85,294.32a4.27,4.27,0,1,0,4.27,4.27A4.27,4.27,0,0,0,165.85,294.32Z"/><path class="cls-1" d="M337.65,342.62a3.12,3.12,0,0,0,.67-2.34c-3.76-33-16.16-43.82-25.16-49.06l-4.45-2.59,4.06-3.17a39.42,39.42,0,0,0-20.6-70.22l-.54-.05V138.46a3.13,3.13,0,0,0-.15-.9c-.9-5.71-9.38-10-25.94-13.29-15.31-3-35.62-4.66-57.19-4.66s-41.88,1.65-57.18,4.66c-16.57,3.26-25,7.58-25.93,13.21a3.79,3.79,0,0,0-.16,1v164.2a3,3,0,0,0,.1.75v.09c.56,5.91,8.81,10.23,26,13.61,15.3,3,35.61,4.67,57.18,4.67,11.59,0,22.77-.47,33.24-1.41l.88-.08-.25.85a110.83,110.83,0,0,0-3.67,19.14,3.12,3.12,0,0,0,.67,2.34,3.17,3.17,0,0,0,4.46.51,3.11,3.11,0,0,0,1.18-2.13c3.32-29.11,13.74-44.17,33.77-48.83a3.17,3.17,0,0,0,.21-6.13A33,33,0,1,1,298,286a3.17,3.17,0,0,0,.21,6.13c20,4.66,30.45,19.72,33.77,48.83a3.17,3.17,0,0,0,5.64,1.62ZM131.74,138.17c.79-1,4.74-4.73,22.66-8,14.67-2.68,33.83-4.16,53.95-4.16s39.29,1.48,54,4.16c17.91,3.29,21.87,7,22.66,8l.27.36-.27.36c-.79,1.05-4.75,4.73-22.66,8-14.67,2.69-33.83,4.17-54,4.17s-39.28-1.48-53.95-4.17c-17.91-3.28-21.87-7-22.66-8l-.27-.36ZM264.11,285.46l4.06,3.16-4.45,2.6c-8.16,4.74-14.45,12.18-18.7,22.1l-.14.33-.35,0c-11.12,1.13-23.63,1.72-36.18,1.72-20.12,0-39.28-1.48-53.95-4.17-19.09-3.5-22.32-7.43-22.78-8.19l-.08-.13v-.16a4,4,0,0,0-.07-.5V256.2l.87.44c4.3,2.19,10.46,4.05,18.84,5.69,15.3,3,35.61,4.67,57.18,4.67a360.83,360.83,0,0,0,41.52-2.26l.51-.06.14.5A38.63,38.63,0,0,0,264.11,285.46Zm21.14-70.27-.55.05a39.41,39.41,0,0,0-35.64,39.2c0,1,.05,2.11.15,3.37l0,.58-.58.07a358.08,358.08,0,0,1-40.33,2.16c-20.12,0-39.28-1.48-53.95-4.16-19.09-3.5-22.32-7.44-22.78-8.19l-.08-.14V248a4.18,4.18,0,0,0-.07-.51v-46l.87.44c4.3,2.18,10.46,4,18.84,5.69,15.31,3,35.61,4.67,57.18,4.67s41.88-1.66,57.19-4.67c8.38-1.65,14.54-3.51,18.84-5.69l.87-.44Zm0-22.49a2.08,2.08,0,0,0-.07.5v.16l-.08.13c-.45.76-3.67,4.69-22.77,8.19-14.67,2.69-33.83,4.17-54,4.17s-39.28-1.48-53.95-4.17c-19.1-3.5-22.32-7.43-22.78-8.19l-.08-.13v-.16a4,4,0,0,0-.07-.5v-46l.87.44c4.3,2.18,10.46,4,18.84,5.69,15.3,3,35.61,4.67,57.18,4.67s41.88-1.66,57.19-4.67c8.38-1.64,14.54-3.51,18.84-5.69l.87-.44Z"/><path class="cls-2" d="M86.53,385.17,72.46,400.06a237.33,237.33,0,0,0,105.48,57.09l4.55-19.86A212.12,212.12,0,0,1,86.53,385.17Z"/><path class="cls-3" d="M182.9,437.29l-4.55,19.86a228,228,0,0,0,120-3.73l-5.79-19.85A206.51,206.51,0,0,1,182.9,437.29Z"/><path class="cls-4" d="M292.1,434l5.8,19.86A229.65,229.65,0,0,0,400.06,391L385.17,376.9A216.69,216.69,0,0,1,292.1,434Z"/><path class="cls-5" d="M385.17,376.49l14.89,14.06a237.33,237.33,0,0,0,57.09-105.48l-19.86-4.55A213.94,213.94,0,0,1,385.17,376.49Z"/><path class="cls-6" d="M26.13,182.9,6.28,178.35a228,228,0,0,0,3.72,120l19.86-5.79A206.5,206.5,0,0,1,26.13,182.9Z"/><path class="cls-5" d="M5.87,178.35l19.85,4.55A214.65,214.65,0,0,1,77.43,86.53L62.53,72.46A239.83,239.83,0,0,0,5.87,178.35Z"/><path class="cls-3" d="M280.11,26.13l4.55-19.85A228,228,0,0,0,164.7,10l5.79,19.86A206.62,206.62,0,0,1,280.11,26.13Z"/><path class="cls-6" d="M434,170.91a208.87,208.87,0,0,1,3.31,109.2l19.86,4.55a228,228,0,0,0-3.73-120h0L434,170.91Z"/><path class="cls-4" d="M170.91,29.44,165.12,9.59A229.61,229.61,0,0,0,63,72.46L77.84,86.53A209.3,209.3,0,0,1,170.91,29.44Z"/><path class="cls-2" d="M376.49,77.84,390.55,63A237.21,237.21,0,0,0,285.07,5.87l-4.55,19.85C316.1,34.82,349.6,52.61,376.49,77.84Z"/></g></g></svg>