<svg xmlns="http://www.w3.org/2000/svg" viewBox="0 0 463.43 463.43"><defs><style>.cls-1{fill:#b0b0b0;}.cls-2{fill:#55bdec;}.cls-3{fill:#77caef;}.cls-4{fill:#99d6f2;}.cls-5{fill:#bae5f7;}.cls-6{fill:#dcf1fa;}</style></defs><g id="Layer_2" data-name="Layer 2"><g id="Layer_1-2" data-name="Layer 1"><path class="cls-1" d="M321.78,315.4V169.57a8.85,8.85,0,0,0-5.6-8.69,10,10,0,0,0-1.6-.52,9.54,9.54,0,0,0-2.28-.28H150.83a10,10,0,0,0-6.85,2.74,9.18,9.18,0,0,0-2.63,6.75V315.4c0,7,5.67,9.49,9.48,9.49H312.3C316.11,324.89,321.78,322.36,321.78,315.4ZM211,193.8c2.13-1.62,3.34-4.28,4.51-6.85,1.54-3.39,2.26-4.54,3.06-4.93a1.15,1.15,0,0,1,.49-.13h.11c.93,0,2.43.74,4.7,2s5,2.84,7.82,2.84,5.47-1.51,7.83-2.84l.68-.4.07,0c1.68-1,2.84-1.63,3.76-1.63a1.89,1.89,0,0,1,.7.14c.95.44,1.77,2,3.15,5,1.17,2.57,2.39,5.22,4.51,6.84s5.16,2.07,7.8,2.44c3.64.52,4.85.89,5.4,1.67s.51,2.21-.16,6.05c-.46,2.7-1,5.75-.17,8.37s2.8,4.55,4.76,6.49c2.39,2.38,3.6,3.8,3.6,5s-1.21,2.63-3.61,5c-1.95,1.94-4,3.95-4.76,6.49s-.28,5.69.19,8.37c.66,3.84.69,5.26.14,6.05s-1.81,1.17-5.43,1.67c-2.62.37-5.59.79-7.76,2.44s-3.34,4.27-4.51,6.84c-1.55,3.4-2.27,4.55-3.06,4.94a1.2,1.2,0,0,1-.63.12,16.12,16.12,0,0,1-4.67-2c-2.36-1.34-5-2.85-7.83-2.85s-5.47,1.52-7.83,2.85c-.21.11-.43.24-.68.39-1.74,1-2.95,1.66-3.89,1.66a1.69,1.69,0,0,1-.33,0,1.32,1.32,0,0,1-.3-.09c-1-.44-1.77-2-3.15-5-1.17-2.57-2.39-5.23-4.51-6.84s-5.14-2.08-7.75-2.45c-3.64-.5-4.91-.89-5.44-1.67s-.53-2.21.14-6.06c.47-2.68,1-5.72.18-8.36s-2.81-4.56-4.77-6.5c-2.38-2.37-3.6-3.8-3.6-5s1.22-2.62,3.61-5c2-1.94,4-3.94,4.76-6.49s.29-5.68-.18-8.38c-.67-3.84-.7-5.25-.15-6s1.76-1.16,5.44-1.68C205.88,195.87,208.85,195.45,211,193.8Zm5.33,99.3a1.19,1.19,0,0,1-1,.67,1.23,1.23,0,0,1-1.09-.61l-4.47-7.8a2.84,2.84,0,0,0-2.46-1.44,2.59,2.59,0,0,0-.54.05l-8.49,1.55a1.22,1.22,0,0,1-1.18-.46,1.2,1.2,0,0,1-.11-1.26l10.71-21.73a1.19,1.19,0,0,1,1.07-.67,1.24,1.24,0,0,1,1.1.69c.15.34.31.68.45,1,1.54,3.38,3.14,6.86,6.63,8.06a6.94,6.94,0,0,0,2.17.35c2.37,0,4.67-1.16,6.64-2.25a1.23,1.23,0,0,1,1.42.19,1.19,1.19,0,0,1,.24,1.4h0Zm30.14-116.59a6.85,6.85,0,0,0-2.17-.35c-2.7,0-5.41,1.53-7.59,2.75s-3.83,2.11-5,2.11-2.82-.87-5-2.1-4.88-2.76-7.6-2.76a6.83,6.83,0,0,0-2.16.35c-3.49,1.19-5.09,4.7-6.64,8.09-.25.55-.49,1.05-.71,1.52H147.3V169.57a4.45,4.45,0,0,1,.24-1.52,3.09,3.09,0,0,1,2.56-2,6,6,0,0,1,.73-.07H312.3a4.94,4.94,0,0,1,.55,0,4.85,4.85,0,0,1,.55.11,5.46,5.46,0,0,1,.61.21,3.15,3.15,0,0,1,1.82,3.18v16.55h-62c-.23-.48-.47-1-.73-1.56C251.57,181.19,250,177.7,246.49,176.51Zm-53.38,18.12c-2.06,3-1.42,6.71-.79,10.34.44,2.55.72,4.45.35,5.66s-1.6,2.4-3.33,4.13c-2.48,2.46-5.29,5.26-5.29,9.06s2.82,6.62,5.31,9.09c1.73,1.72,3,3,3.31,4.11s.09,3.12-.35,5.69c-.63,3.6-1.28,7.33.79,10.3s5.33,3.51,8.9,4a1.2,1.2,0,0,1,.91,1.72l-14.67,29.78a2.84,2.84,0,0,0,.29,3,2.81,2.81,0,0,0,2.8,1.1L205,290.13a1.2,1.2,0,0,1,1.26.59L213,302.63a2.87,2.87,0,0,0,2.49,1.44h.09a2.85,2.85,0,0,0,2.48-1.59l16.85-34,.06,0a.26.26,0,0,1,.11-.08,1.21,1.21,0,0,1,1.08,0l.59.33c2.28,1.28,4.85,2.74,7.5,2.74a6.5,6.5,0,0,0,2.19-.37c3.49-1.18,5.09-4.67,6.63-8,.14-.32.3-.66.46-1a1.21,1.21,0,0,1,2.17,0l10.71,21.73a1.21,1.21,0,0,1-1.3,1.72l-8.5-1.55a2.83,2.83,0,0,0-3,1.4l-4.45,7.77a1.21,1.21,0,0,1-2.13-.07l-4.65-9.43a2.86,2.86,0,0,0-3.84-1.3,2.86,2.86,0,0,0-1.3,3.84l8,16.29a2.86,2.86,0,0,0,2.46,1.6h.11a2.87,2.87,0,0,0,2.49-1.44l6.82-11.91a1.22,1.22,0,0,1,1.26-.59l13.63,2.49a2.8,2.8,0,0,0,2.8-1.1,2.86,2.86,0,0,0,.28-3l-14.66-29.78a1.2,1.2,0,0,1,.91-1.72c3.57-.51,6.93-1.2,8.89-4,2.07-3,1.43-6.71.8-10.31-.43-2.48-.73-4.47-.36-5.69s1.6-2.4,3.34-4.13c2.48-2.46,5.29-5.26,5.29-9.07s-2.81-6.6-5.29-9.06c-1.74-1.73-3-3-3.33-4.13s-.08-3.21.35-5.7c.63-3.6,1.27-7.33-.8-10.3a7.52,7.52,0,0,0-3.09-2.55h48.61V315.4c0,3-2.23,3.51-3.55,3.54H150.83a3.28,3.28,0,0,1-3.53-3.54V192.08h48.91A7.49,7.49,0,0,0,193.11,194.63Z"/><path class="cls-1" d="M351.14,225.55H328.61a3,3,0,1,0,0,5.95h22.53a2,2,0,0,1,2.28,2.28v12.78H328.61a3,3,0,1,0,0,5.95h24.81v98.95a2.05,2.05,0,0,1-2.28,2.28H254a2,2,0,0,1-2.27-2.28V335a3,3,0,0,0-6,0v16.45c0,6,4.93,8.24,8.23,8.24h97.19c3.31,0,8.23-2.2,8.23-8.24V233.78C359.37,227.74,354.45,225.55,351.14,225.55Z"/><path class="cls-1" d="M134.7,231.93H112.33c-1.56,0-2.32-.79-2.32-2.28v-99h70.64v21.59a3,3,0,1,0,5.95,0V112c0-6-4.92-8.23-8.23-8.23H112.29c-3.31,0-8.24,2.19-8.24,8.23V229.65c0,6,4.93,8.23,8.24,8.23H134.7a3,3,0,1,0,0-5.95ZM110,112a2.06,2.06,0,0,1,2.28-2.28h66c1.56,0,2.32.79,2.32,2.28v12.78H110Z"/><path class="cls-1" d="M231.71,251.13a27.31,27.31,0,1,0-27.3-27.31A27.34,27.34,0,0,0,231.71,251.13Zm-21.56-27.31a21.57,21.57,0,1,1,21.56,21.57A21.58,21.58,0,0,1,210.15,223.82Z"/><path class="cls-2" d="M86.53,385.17,72.46,400.06a237.33,237.33,0,0,0,105.48,57.09l4.55-19.86A212.12,212.12,0,0,1,86.53,385.17Z"/><path class="cls-3" d="M182.9,437.29l-4.55,19.86a228,228,0,0,0,120-3.73l-5.79-19.85A206.51,206.51,0,0,1,182.9,437.29Z"/><path class="cls-4" d="M292.1,434l5.8,19.86A229.65,229.65,0,0,0,400.06,391L385.17,376.9A216.69,216.69,0,0,1,292.1,434Z"/><path class="cls-5" d="M385.17,376.49l14.89,14.06a237.33,237.33,0,0,0,57.09-105.48l-19.86-4.55A213.94,213.94,0,0,1,385.17,376.49Z"/><path class="cls-6" d="M26.13,182.9,6.28,178.35a228,228,0,0,0,3.72,120l19.86-5.79A206.5,206.5,0,0,1,26.13,182.9Z"/><path class="cls-5" d="M5.87,178.35l19.85,4.55A214.65,214.65,0,0,1,77.43,86.53L62.53,72.46A239.83,239.83,0,0,0,5.87,178.35Z"/><path class="cls-3" d="M280.11,26.13l4.55-19.85A228,228,0,0,0,164.7,10l5.79,19.86A206.62,206.62,0,0,1,280.11,26.13Z"/><path class="cls-6" d="M434,170.91a208.87,208.87,0,0,1,3.31,109.2l19.86,4.55a228,228,0,0,0-3.73-120h0L434,170.91Z"/><path class="cls-4" d="M170.91,29.44,165.12,9.59A229.61,229.61,0,0,0,63,72.46L77.84,86.53A209.3,209.3,0,0,1,170.91,29.44Z"/><path class="cls-2" d="M376.49,77.84,390.55,63A237.21,237.21,0,0,0,285.07,5.87l-4.55,19.85C316.1,34.82,349.6,52.61,376.49,77.84Z"/></g></g></svg>