<svg xmlns="http://www.w3.org/2000/svg" viewBox="0 0 463.43 463.43"><defs><style>.cls-1{fill:#b0b0b0;}.cls-2{fill:#55bdec;}.cls-3{fill:#77caef;}.cls-4{fill:#99d6f2;}.cls-5{fill:#bae5f7;}.cls-6{fill:#dcf1fa;}</style></defs><g id="Layer_2" data-name="Layer 2"><g id="Layer_1-2" data-name="Layer 1"><path class="cls-1" d="M225.67,329.58c-2.76,5.79-7.61,8.37-15.71,8.37a34.55,34.55,0,0,1-34.61-34.41c0-.05,0-.1,0-.16v-.14a23.27,23.27,0,0,1,1.19-8.73c2.08-6.3,6.51-11,13.14-13.9l.53-.24.39.43A27.55,27.55,0,0,0,202,287.91l.51.18,0,.54a9.52,9.52,0,0,0,7.38,8.86v12.27H199.85a2.4,2.4,0,0,0-2.4,2.4v11.52a2.4,2.4,0,1,0,4.8,0v-9.12h10.08a2.4,2.4,0,0,0,2.4-2.4v-14.8a9.55,9.55,0,1,0-10.15-15.06l-.36.45-.54-.19c-5.53-2-9.36-5-11.39-9-3.58-7.11-.59-15.19-.46-15.53a2.81,2.81,0,0,0-1.58-3.63,2.81,2.81,0,0,0-3.63,1.58c-.16.4-3.78,9.83.14,19l.3.7-.69.33a28.51,28.51,0,0,0-16.63,23.82l-.07.84-.83-.11a29.29,29.29,0,0,1-25.53-29,29.81,29.81,0,0,1,.61-5.95s0-.08,0-.12l0-.23a24,24,0,0,1,11.59-16.73l.61-.38.44.57a19.11,19.11,0,0,0,8,5.84,2.91,2.91,0,0,0,1.09.22,2.8,2.8,0,0,0,1.09-5.38c-3.68-1.55-6-3.71-7-6.43-1.59-4.49.94-9.35,1.05-9.56a2.81,2.81,0,0,0-1.1-3.8,2.8,2.8,0,0,0-3.81,1.1,19.91,19.91,0,0,0-2,11.7l.09.55-.48.28A30.26,30.26,0,0,0,139.86,259l-.42,1.13-.88-.83a34.36,34.36,0,0,1,5.82-54.34l.78-.48.37.85a28.42,28.42,0,0,0,3.7,6.29c3.52,4.54,10.17,10.09,21.82,10.76l.53,0,.18.49a9.61,9.61,0,0,0,6.49,6v11.34a2.39,2.39,0,0,0,2.4,2.4h22.08A9.55,9.55,0,1,0,214.25,231V210.88a2.41,2.41,0,0,0-2.4-2.4h-7.68V194.26a9.55,9.55,0,0,0,.48-18.6v-19a2.4,2.4,0,0,0-4.8,0v19a9.49,9.49,0,0,0-6.49,5.77l-.23.58-.62-.08c-16.36-2.1-17-21.25-17.06-22.06A34.51,34.51,0,0,1,210,125.48c11.76,0,16.45,5.55,18.15,17.6A42,42,0,0,1,230.83,132c-3.26-7.09-9.39-12.12-20.87-12.12a40.12,40.12,0,0,0-40,37.51l0,.59-.56.14a34.91,34.91,0,0,0-25.84,40.2l.1.57-.5.28a40,40,0,0,0-5.34,66.77l.36.28-.06.46a35.5,35.5,0,0,0-.34,4.82,34.7,34.7,0,0,0,31.46,34.68l.67.06,0,.67A40.35,40.35,0,0,0,210,343.55c11.48,0,17.61-5,20.87-12.12a42.11,42.11,0,0,1-2.71-11A31.5,31.5,0,0,1,225.67,329.58Zm-13.59-45.34a4,4,0,1,1-4,3.95A4,4,0,0,1,212.08,284.24ZM176.77,219.6a4,4,0,1,1,4,4A4,4,0,0,1,176.77,219.6ZM216,240.31a4,4,0,1,1-4-3.95A4,4,0,0,1,216,240.31Zm-13.71-59.37a4,4,0,1,1-4,4A4,4,0,0,1,202.25,180.94Zm-32.9-17,.86-.26.16.89a36.12,36.12,0,0,0,2.61,8.68c3.84,8.52,10.62,13.48,19.6,14.35l.51,0,.17.48a9.58,9.58,0,0,0,6.11,5.9v16.88a2.39,2.39,0,0,0,2.4,2.4h7.68v17.84a9.56,9.56,0,0,0-6.64,6.64H183.05v-8.9a9.55,9.55,0,1,0-11.24-12.65l-.21.56-.6,0c-18-1.24-21.28-16.21-21.41-16.85,0,0,0,0,0-.09l0-.14a29.32,29.32,0,0,1,19.82-35.73Z"/><path class="cls-1" d="M341.21,229.13a39.74,39.74,0,0,0-15.53-31.64l-.37-.29.07-.46a35.27,35.27,0,0,0,.33-4.82,34.69,34.69,0,0,0-31.46-34.67l-.66-.07-.06-.66a40.31,40.31,0,0,0-40-36.64c-10.23,0-17.24,4.05-20.89,12l-.27.59c-.07.16-.13.32-.19.49-.16.39-.31.79-.46,1.19C229.2,141.3,229,150.4,229,159.88V303.54c0,9.49.23,18.59,2.74,25.72.15.41.3.81.46,1.2.07.16.12.33.19.49s.19.39.27.58c3.65,8,10.66,12,20.89,12a40.1,40.1,0,0,0,40-37.52l0-.59.57-.14a34.86,34.86,0,0,0,26.4-33.8,35.12,35.12,0,0,0-.59-6.4l-.11-.57.51-.28A40,40,0,0,0,341.21,229.13ZM253.52,338c-11.7,0-16.38-5.53-18.08-17.54-.17-1.2-.31-2.48-.42-3.81-.33-3.81-.45-8.15-.45-13.06V159.88c0-4.9.1-9.31.43-13.21.12-1.32.25-2.58.42-3.78a31.42,31.42,0,0,1,2.44-9c2.75-5.79,7.58-8.37,15.66-8.37a34.51,34.51,0,0,1,34.55,34.4,1,1,0,0,1,0,.16v.15c.06.63,1.4,15.69-14.33,22.63l-.53.23-.38-.42a27.58,27.58,0,0,0-11.44-7.11l-.51-.18,0-.54a9.52,9.52,0,0,0-7.26-8.84v-12.2h10.08a2.4,2.4,0,0,0,2.4-2.4V139.84a2.4,2.4,0,1,0-4.8,0V149H251.21a2.4,2.4,0,0,0-2.4,2.4V166a9.55,9.55,0,1,0,10,15.09l.35-.45.54.19c5.54,2,9.37,5,11.4,9,3.59,7.13.49,15.44.46,15.53a1.27,1.27,0,0,0-.06.18H260.65a9.55,9.55,0,1,0-11.36,11.74v35.3a2.39,2.39,0,0,0,2.4,2.4h7.68v14.11a9.55,9.55,0,0,0-.48,18.65v13.8a2.39,2.39,0,0,0,2.4,2.4h5.28v9.6H249.29a2.4,2.4,0,0,0,0,4.8H269a2.4,2.4,0,0,0,2.4-2.4V301.6a2.41,2.41,0,0,0-2.4-2.4h-5.28V287.74a9.5,9.5,0,0,0,6.36-5.69l.23-.57.61.07c16.43,2.1,17.06,21.34,17.08,22.15l0,.14A34.56,34.56,0,0,1,253.52,338Zm-2.18-166.67a4,4,0,1,1-4,4A4,4,0,0,1,251.34,171.28Zm.08,40.7a3.95,3.95,0,1,1,4-3.95A4,4,0,0,1,251.42,212Zm9.76,70.5a4,4,0,1,1,3.95-4A4,4,0,0,1,261.18,282.48Zm32.89,17-.87.25-.15-.88a36.47,36.47,0,0,0-2.6-8.68c-3.84-8.52-10.62-13.48-19.6-14.35l-.51,0-.17-.48a9.58,9.58,0,0,0-6-5.87V252.64a2.41,2.41,0,0,0-2.4-2.4h-7.68v-33a9.59,9.59,0,0,0,6.57-6.8h19.83v24.14a9.55,9.55,0,1,0,11.13,12.67l.21-.55.59,0c18,1.23,21.29,16.21,21.42,16.85l0,.13s0,.07,0,.11a29.27,29.27,0,0,1-19.83,35.73ZM282.7,239.87a4,4,0,1,1-4,4A4,4,0,0,1,282.7,239.87Zm36.35,18.64-.79.48-.36-.84a29.12,29.12,0,0,0-3.7-6.3c-3.53-4.53-10.17-10.08-21.83-10.75l-.52,0-.18-.49a9.62,9.62,0,0,0-6.38-5.94V208a2.41,2.41,0,0,0-2.4-2.4h-5.48c.9-3.25,2.19-10.26-.74-17.09l-.31-.7.69-.34a28.52,28.52,0,0,0,16.64-23.81l.06-.84.84.11a29.25,29.25,0,0,1,24.91,34.95.45.45,0,0,0,0,.11l0,.25a23.35,23.35,0,0,1-7.74,13.88l-.58.52-.53-.56c-4.38-4.58-11-4.88-12.23-4.9a2.89,2.89,0,0,0,0,5.78h0c.7,0,6,.12,8.71,3.71,2,2.64,2.28,6.47.81,11.74a2.8,2.8,0,0,0,5.4,1.51,23.24,23.24,0,0,0,.62-11.75l-.13-.5.4-.32a30.22,30.22,0,0,0,9.36-12.88l.42-1.13.88.83a34.35,34.35,0,0,1-5.81,54.34Z"/><path class="cls-2" d="M86.53,385.17,72.46,400.06a237.33,237.33,0,0,0,105.48,57.09l4.55-19.86A212.12,212.12,0,0,1,86.53,385.17Z"/><path class="cls-3" d="M182.9,437.29l-4.55,19.86a228,228,0,0,0,120-3.73l-5.79-19.85A206.51,206.51,0,0,1,182.9,437.29Z"/><path class="cls-4" d="M292.1,434l5.8,19.86A229.65,229.65,0,0,0,400.06,391L385.17,376.9A216.69,216.69,0,0,1,292.1,434Z"/><path class="cls-5" d="M385.17,376.49l14.89,14.06a237.33,237.33,0,0,0,57.09-105.48l-19.86-4.55A213.94,213.94,0,0,1,385.17,376.49Z"/><path class="cls-6" d="M26.13,182.9,6.28,178.35a228,228,0,0,0,3.72,120l19.86-5.79A206.5,206.5,0,0,1,26.13,182.9Z"/><path class="cls-5" d="M5.87,178.35l19.85,4.55A214.65,214.65,0,0,1,77.43,86.53L62.53,72.46A239.83,239.83,0,0,0,5.87,178.35Z"/><path class="cls-3" d="M280.11,26.13l4.55-19.85A228,228,0,0,0,164.7,10l5.79,19.86A206.62,206.62,0,0,1,280.11,26.13Z"/><path class="cls-6" d="M434,170.91a208.87,208.87,0,0,1,3.31,109.2l19.86,4.55a228,228,0,0,0-3.73-120h0L434,170.91Z"/><path class="cls-4" d="M170.91,29.44,165.12,9.59A229.61,229.61,0,0,0,63,72.46L77.84,86.53A209.3,209.3,0,0,1,170.91,29.44Z"/><path class="cls-2" d="M376.49,77.84,390.55,63A237.21,237.21,0,0,0,285.07,5.87l-4.55,19.85C316.1,34.82,349.6,52.61,376.49,77.84Z"/></g></g></svg>