<svg xmlns="http://www.w3.org/2000/svg" viewBox="0 0 463.43 463.43"><defs><style>.cls-1{fill:#b0b0b0;}.cls-2{fill:#55bdec;}.cls-3{fill:#77caef;}.cls-4{fill:#99d6f2;}.cls-5{fill:#bae5f7;}.cls-6{fill:#dcf1fa;}</style></defs><g id="Layer_2" data-name="Layer 2"><g id="Layer_1-2" data-name="Layer 1"><path class="cls-1" d="M236.81,349.42H226.46a13.77,13.77,0,0,1-13.75-13.75A6.55,6.55,0,0,0,201.53,331a13.76,13.76,0,0,1-19.44,0l-7.32-7.32a13.74,13.74,0,0,1,0-19.44,6.55,6.55,0,0,0-4.63-11.18,13.77,13.77,0,0,1-13.75-13.75V269a13.77,13.77,0,0,1,13.75-13.75,6.55,6.55,0,0,0,4.63-11.18,13.76,13.76,0,0,1,0-19.44l7.32-7.32a13.74,13.74,0,0,1,19.44,0,6.55,6.55,0,0,0,11.18-4.63,13.77,13.77,0,0,1,13.75-13.75h10.35a13.77,13.77,0,0,1,13.75,13.75,6.55,6.55,0,0,0,11.18,4.63,13.76,13.76,0,0,1,19.44,0l7.32,7.32a13.76,13.76,0,0,1,0,19.44,6.55,6.55,0,0,0,4.63,11.18A13.77,13.77,0,0,1,306.88,269v10.35a13.77,13.77,0,0,1-13.75,13.75,6.54,6.54,0,0,0-4.63,11.17,13.75,13.75,0,0,1,0,19.45L281.18,331a13.76,13.76,0,0,1-19.44,0,6.55,6.55,0,0,0-11.18,4.63A13.77,13.77,0,0,1,236.81,349.42Zm-30.73-27.54a13.86,13.86,0,0,1,5.34,1.09,13.52,13.52,0,0,1,8.49,12.7,6.56,6.56,0,0,0,6.55,6.55h10.35a6.56,6.56,0,0,0,6.55-6.55A13.75,13.75,0,0,1,266.83,326a6.56,6.56,0,0,0,9.26,0l7.32-7.32a6.57,6.57,0,0,0,0-9.26,13.75,13.75,0,0,1,9.72-23.47,6.56,6.56,0,0,0,6.55-6.55V269a6.56,6.56,0,0,0-6.55-6.55A13.75,13.75,0,0,1,283.41,239a6.57,6.57,0,0,0,0-9.26l-7.32-7.32a6.54,6.54,0,0,0-9.26,0,13.75,13.75,0,0,1-23.47-9.72,6.56,6.56,0,0,0-6.55-6.55H226.46a6.56,6.56,0,0,0-6.55,6.55,13.75,13.75,0,0,1-23.47,9.72,6.54,6.54,0,0,0-9.26,0l-7.32,7.32a6.56,6.56,0,0,0,0,9.26,13.75,13.75,0,0,1-9.72,23.47,6.56,6.56,0,0,0-6.55,6.55v10.35a6.56,6.56,0,0,0,6.55,6.55,13.75,13.75,0,0,1,9.72,23.47,6.56,6.56,0,0,0,0,9.26l7.32,7.32a6.56,6.56,0,0,0,9.26,0A13.56,13.56,0,0,1,206.08,321.88Zm25.55-25.6a22.11,22.11,0,1,1,22.11-22.11A22.13,22.13,0,0,1,231.63,296.28Zm0-37a14.91,14.91,0,1,0,14.91,14.9A14.92,14.92,0,0,0,231.63,259.27Z"/><path class="cls-1" d="M231.21,153.27a19.63,19.63,0,1,1,19.63-19.63A19.64,19.64,0,0,1,231.21,153.27Zm0-32.06a12.43,12.43,0,1,0,12.43,12.43A12.44,12.44,0,0,0,231.21,121.21Z"/><path class="cls-1" d="M197.72,208.12a4.46,4.46,0,0,1-.63-.05,3.61,3.61,0,0,1-2.92-4.18l5-28.3a22.69,22.69,0,0,1,16.73-18.45l5.59-1.46a3.6,3.6,0,0,1,1.81,7l-5.59,1.45a15.5,15.5,0,0,0-11.43,12.63s0,.06,0,.08l-5,28.34A3.6,3.6,0,0,1,197.72,208.12Z"/><path class="cls-1" d="M265.55,208.32a3.61,3.61,0,0,1-3.54-3l-5.07-28.54a.25.25,0,0,0,0-.08,15.51,15.51,0,0,0-11.42-12.63l-5.6-1.45a3.6,3.6,0,0,1,1.81-7l5.6,1.45A22.69,22.69,0,0,1,264,175.59l5.06,28.5a3.6,3.6,0,0,1-2.92,4.17A3.36,3.36,0,0,1,265.55,208.32Z"/><path class="cls-1" d="M304.05,183.88a19.64,19.64,0,1,1,19.64-19.64A19.66,19.66,0,0,1,304.05,183.88Zm0-32.07a12.43,12.43,0,1,0,12.44,12.43A12.45,12.45,0,0,0,304.05,151.81Z"/><path class="cls-1" d="M275.59,210.38a3.48,3.48,0,0,1-.55,0,3.6,3.6,0,0,1-3-4.11,22.67,22.67,0,0,1,16.73-18.49l5.6-1.46a3.6,3.6,0,1,1,1.81,7l-5.6,1.46a15.48,15.48,0,0,0-11.42,12.62A3.61,3.61,0,0,1,275.59,210.38Z"/><path class="cls-1" d="M290.85,260.14a11.55,11.55,0,0,1-5.12-21.9l28.35-14.58-1.92-10.33a3.6,3.6,0,1,1,7.08-1.31l2.4,13a3.6,3.6,0,0,1-1.89,3.86L289,244.65l-.06,0a4.35,4.35,0,0,0,3.74,7.85l37.95-18.39a5.45,5.45,0,0,0,3-5.87l-3.81-20.85s0-.06,0-.1a15.48,15.48,0,0,0-11.43-12.62l-5.59-1.46a3.6,3.6,0,1,1,1.81-7l5.59,1.46a22.67,22.67,0,0,1,16.72,18.44l3.8,20.81a12.66,12.66,0,0,1-6.92,13.64l-38,18.4,0,0A11.5,11.5,0,0,1,290.85,260.14Zm3.36-4.35h0Z"/><path class="cls-1" d="M159.37,183.88A19.64,19.64,0,1,1,179,164.24,19.66,19.66,0,0,1,159.37,183.88Zm0-32.07a12.43,12.43,0,1,0,12.43,12.43A12.45,12.45,0,0,0,159.37,151.81Z"/><path class="cls-1" d="M187.83,210.38a3.6,3.6,0,0,1-3.55-3,15.48,15.48,0,0,0-11.42-12.62l-5.6-1.46a3.6,3.6,0,0,1,1.81-7l5.6,1.46a22.65,22.65,0,0,1,16.72,18.49,3.58,3.58,0,0,1-3.56,4.15Z"/><path class="cls-1" d="M172.58,260.14a11.5,11.5,0,0,1-4.89-1.09l0,0-38-18.4A12.67,12.67,0,0,1,122.74,227l3.8-20.81a22.68,22.68,0,0,1,16.72-18.44l5.6-1.46a3.6,3.6,0,0,1,1.81,7l-5.6,1.46a15.48,15.48,0,0,0-11.42,12.62s0,.07,0,.1l-3.8,20.85a5.43,5.43,0,0,0,3,5.87l37.95,18.39a4.36,4.36,0,0,0,3.31.14,4.36,4.36,0,0,0,.43-8l-.07,0-30.75-15.81a3.59,3.59,0,0,1-1.9-3.86l2.41-13a3.6,3.6,0,1,1,7.08,1.31l-1.92,10.33,28.35,14.58a11.6,11.6,0,0,1,5.35,15.22,11.56,11.56,0,0,1-10.47,6.68Z"/><path class="cls-2" d="M86.53,385.17,72.46,400.06a237.33,237.33,0,0,0,105.48,57.09l4.55-19.86A212.12,212.12,0,0,1,86.53,385.17Z"/><path class="cls-3" d="M182.9,437.29l-4.55,19.86a228,228,0,0,0,120-3.73l-5.79-19.85A206.51,206.51,0,0,1,182.9,437.29Z"/><path class="cls-4" d="M292.1,434l5.8,19.86A229.65,229.65,0,0,0,400.06,391L385.17,376.9A216.69,216.69,0,0,1,292.1,434Z"/><path class="cls-5" d="M385.17,376.49l14.89,14.06a237.33,237.33,0,0,0,57.09-105.48l-19.86-4.55A213.94,213.94,0,0,1,385.17,376.49Z"/><path class="cls-6" d="M26.13,182.9,6.28,178.35a228,228,0,0,0,3.72,120l19.86-5.79A206.5,206.5,0,0,1,26.13,182.9Z"/><path class="cls-5" d="M5.87,178.35l19.85,4.55A214.65,214.65,0,0,1,77.43,86.53L62.53,72.46A239.83,239.83,0,0,0,5.87,178.35Z"/><path class="cls-3" d="M280.11,26.13l4.55-19.85A228,228,0,0,0,164.7,10l5.79,19.86A206.62,206.62,0,0,1,280.11,26.13Z"/><path class="cls-6" d="M434,170.91a208.87,208.87,0,0,1,3.31,109.2l19.86,4.55a228,228,0,0,0-3.73-120h0L434,170.91Z"/><path class="cls-4" d="M170.91,29.44,165.12,9.59A229.61,229.61,0,0,0,63,72.46L77.84,86.53A209.3,209.3,0,0,1,170.91,29.44Z"/><path class="cls-2" d="M376.49,77.84,390.55,63A237.21,237.21,0,0,0,285.07,5.87l-4.55,19.85C316.1,34.82,349.6,52.61,376.49,77.84Z"/></g></g></svg>