<svg id="Layer_1" data-name="Layer 1" xmlns="http://www.w3.org/2000/svg" viewBox="0 0 734.2 734.2"><defs><style>.cls-1{fill:#55bdec;}.cls-2{fill:#77caef;}.cls-3{fill:#99d6f2;}.cls-4{fill:#bae5f7;}.cls-5{fill:#dcf1fa;}</style></defs><path class="cls-1" d="M170.45,643.36,148.13,667a368.88,368.88,0,0,0,167.26,90.16l7.49-31.65A336.1,336.1,0,0,1,170.45,643.36Z" transform="translate(-32.9 -32.9)"/><path class="cls-2" d="M322.88,725.53l-7.49,31.65a365.36,365.36,0,0,0,189.9-5.6L496,720.43A333,333,0,0,1,322.88,725.53Z" transform="translate(-32.9 -32.9)"/><path class="cls-3" d="M496,720.43l9.33,31.15A365.36,365.36,0,0,0,667,651.87l-23.66-22.32A333,333,0,0,1,496,720.43Z" transform="translate(-32.9 -32.9)"/><path class="cls-4" d="M643.36,629.55,667,651.87a368.89,368.89,0,0,0,90.16-167.25l-31.65-7.5A336.1,336.1,0,0,1,643.36,629.55Z" transform="translate(-32.9 -32.9)"/><path class="cls-5" d="M720.43,304a333,333,0,0,1,5.1,173.08l31.65,7.5a365.39,365.39,0,0,0-5.6-189.91h0L720.43,304Z" transform="translate(-32.9 -32.9)"/><path class="cls-2" d="M477.12,74.47l7.49-31.65a365.36,365.36,0,0,0-189.9,5.6L304,79.57A333,333,0,0,1,477.12,74.47Z" transform="translate(-32.9 -32.9)"/><path class="cls-5" d="M74.47,322.88l-31.65-7.5a365.39,365.39,0,0,0,5.6,189.91L79.57,496A333,333,0,0,1,74.47,322.88Z" transform="translate(-32.9 -32.9)"/><path class="cls-4" d="M42.82,315.38l31.65,7.5a336.1,336.1,0,0,1,82.17-152.43L133,148.13A368.89,368.89,0,0,0,42.82,315.38Z" transform="translate(-32.9 -32.9)"/><path class="cls-3" d="M304,79.57l-9.33-31.15A365.36,365.36,0,0,0,133,148.13l23.66,22.32A333,333,0,0,1,304,79.57Z" transform="translate(-32.9 -32.9)"/><path class="cls-1" d="M629.55,156.64,651.87,133A368.88,368.88,0,0,0,484.61,42.82l-7.49,31.65A336.1,336.1,0,0,1,629.55,156.64Z" transform="translate(-32.9 -32.9)"/><path class="cls-5" d="M462.7,198a210.75,210.75,0,0,1,82.16,48.47l11.36-12a228.68,228.68,0,0,0-103.73-55.92l-3.71,15.67C453.42,195.27,458.07,196.5,462.7,198Z" transform="translate(-32.9 -32.9)"/><path class="cls-4" d="M601.85,339.54l16.21-4.85a226.62,226.62,0,0,0-61.84-100.3l-11.36,12A212.54,212.54,0,0,1,601.85,339.54Z" transform="translate(-32.9 -32.9)"/><path class="cls-3" d="M604.79,448.5l16.74,4a226.55,226.55,0,0,0-3.47-117.78l-16.21,4.85A210.44,210.44,0,0,1,604.79,448.5Z" transform="translate(-32.9 -32.9)"/><path class="cls-2" d="M621.53,452.47l-16.74-4c-1.19,5-2.49,9.92-4,14.85a210.63,210.63,0,0,1-47.5,81.18l12.37,11.67A228.68,228.68,0,0,0,621.53,452.47Z" transform="translate(-32.9 -32.9)"/><path class="cls-1" d="M460.53,602.06l4.78,16a226.44,226.44,0,0,0,100.3-61.84l-12.37-11.67A212.35,212.35,0,0,1,460.53,602.06Z" transform="translate(-32.9 -32.9)"/><path class="cls-2" d="M197.3,336a210.63,210.63,0,0,1,48.14-81.82l-11-10.41a228.68,228.68,0,0,0-55.92,103.73L193.23,351C194.42,346,195.73,341,197.3,336Z" transform="translate(-32.9 -32.9)"/><path class="cls-4" d="M196.56,460.92,182,465.29A226.47,226.47,0,0,0,243.8,565.6l10.73-11.38A212.38,212.38,0,0,1,196.56,460.92Z" transform="translate(-32.9 -32.9)"/><path class="cls-5" d="M254.53,554.22,243.8,565.6a228.75,228.75,0,0,0,103.73,55.91l3.75-15.82c-5.32-1.24-10.63-2.62-15.93-4.29A210.76,210.76,0,0,1,254.53,554.22Z" transform="translate(-32.9 -32.9)"/><path class="cls-3" d="M193.23,351l-14.74-3.49A226.45,226.45,0,0,0,182,465.29l14.6-4.37A210.33,210.33,0,0,1,193.23,351Z" transform="translate(-32.9 -32.9)"/><path class="cls-1" d="M339.15,196.78l-4.45-14.84a226.58,226.58,0,0,0-100.29,61.84l11,10.41A212.39,212.39,0,0,1,339.15,196.78Z" transform="translate(-32.9 -32.9)"/><path class="cls-3" d="M141.87,318.51a268.7,268.7,0,0,1,61.27-104.22L189,200.9a291.48,291.48,0,0,0-71.27,132.21l19,4.5C138.2,331.23,139.87,324.86,141.87,318.51Z" transform="translate(-32.9 -32.9)"/><path class="cls-2" d="M322.47,141.09l-5.69-19A288.66,288.66,0,0,0,189,200.9l14.19,13.39A270.87,270.87,0,0,1,322.47,141.09Z" transform="translate(-32.9 -32.9)"/><path class="cls-1" d="M462.17,137.59l4.72-19.93a288.78,288.78,0,0,0-150.11,4.42l5.69,19A268.08,268.08,0,0,1,462.17,137.59Z" transform="translate(-32.9 -32.9)"/><path class="cls-4" d="M136.68,337.61l-19-4.5a288.78,288.78,0,0,0,4.42,150.11l18.77-5.62A268.14,268.14,0,0,1,136.68,337.61Z" transform="translate(-32.9 -32.9)"/><path class="cls-5" d="M140.87,477.6l-18.77,5.62a288.66,288.66,0,0,0,78.82,127.83l13.71-14.53A270.86,270.86,0,0,1,140.87,477.6Z" transform="translate(-32.9 -32.9)"/><path class="cls-2" d="M477.2,657.75l6,20.15a288.66,288.66,0,0,0,127.83-78.82l-15.53-14.65A270.89,270.89,0,0,1,477.2,657.75Z" transform="translate(-32.9 -32.9)"/><path class="cls-1" d="M337.88,662.24l-4.75,20.08a288.78,288.78,0,0,0,150.11-4.42l-6-20.15A268.09,268.09,0,0,1,337.88,662.24Z" transform="translate(-32.9 -32.9)"/><path class="cls-5" d="M657.53,322.87l20.39-6.11A288.75,288.75,0,0,0,599.1,188.93l-14.35,15.21A270.72,270.72,0,0,1,657.53,322.87Z" transform="translate(-32.9 -32.9)"/><path class="cls-3" d="M682.34,466.87l-21-5c-1.51,6.33-3.17,12.65-5.16,19a268.6,268.6,0,0,1-60.64,103.58l15.53,14.65A291.43,291.43,0,0,0,682.34,466.87Z" transform="translate(-32.9 -32.9)"/><path class="cls-4" d="M661.34,461.9l21,5a288.78,288.78,0,0,0-4.42-150.11l-20.39,6.11A268.13,268.13,0,0,1,661.34,461.9Z" transform="translate(-32.9 -32.9)"/></svg>